# xmcd
#
# Track frame offsets:
# 150
# 28371
# 49633
# 88772
# 107275
# 129129
# 172161
# 193120
# 217018
#
# Disc length: 3263 seconds
#
# Revision: 1
# Processed by: cddbd v1.5.2PL0 Copyright (c) Steve Scherf et al.
# Submitted via: Easy CD Ripper 2.3.10
#
DISCID=7b0cbd09
DTITLE=Willie Murphy - A Shot of Love in a Time of Need
DYEAR=2009
DGENRE=Blues
TTITLE0=Everything I Do Gonh Be Funky (from Now On) - Willie Murphy
TTITLE1=Love Attack - Willie Murphy
TTITLE2=Land of 1000 Dances - Willie Murphy
TTITLE3=Life is but a Dream - Willie Murphy
TTITLE4=ACtions Speak Louder Than Words - Willie Murphy
TTITLE5=Mud Puddle - Willie Murphy
TTITLE6=Something to It - Willie Murphy
TTITLE7=I"ll Be Here - Willie Murphy
TTITLE8=Sometimes Dreams Come True - Willie Murphy
EXTD=
EXTT0=Red House Records
EXTT1=Red House Records
EXTT2=Red House Records
EXTT3=Red House Records
EXTT4=Red House Records
EXTT5=Red House Records
EXTT6=Red House Records
EXTT7=Red House Records
EXTT8=Red House Records
PLAYORDER=
